<svg width="24" height="24" viewBox="0 0 24 24" fill="none" xmlns="http://www.w3.org/2000/svg">
<path d="M16.185 19.368L13.764 16.9455C12.8278 17.2802 11.8157 17.3422 10.8456 17.1243C9.87554 16.9063 8.98729 16.4173 8.28423 15.7143C7.58117 15.0112 7.09221 14.123 6.87424 13.1529C6.65628 12.1828 6.71827 11.1707 7.053 10.2345L3.963 7.1445C1.407 9.417 0 12 0 12C0 12 4.5 20.25 12 20.25C13.4406 20.245 14.8649 19.9448 16.185 19.368ZM7.815 4.632C9.13508 4.05514 10.5594 3.75496 12 3.75C19.5 3.75 24 12 24 12C24 12 22.5915 14.5815 20.0385 16.857L16.9455 13.764C17.2802 12.8278 17.3422 11.8157 17.1243 10.8456C16.9063 9.87554 16.4173 8.98729 15.7143 8.28423C15.0112 7.58117 14.123 7.09221 13.1529 6.87424C12.1828 6.65628 11.1707 6.71827 10.2345 7.053L7.815 4.6335V4.632Z" fill="black"/>
<path d="M8.28747 11.469C8.20496 12.0455 8.25783 12.6332 8.44191 13.1857C8.62599 13.7382 8.93621 14.2402 9.34798 14.652C9.75976 15.0638 10.2618 15.374 10.8143 15.5581C11.3667 15.7421 11.9545 15.795 12.531 15.7125L8.28597 11.469H8.28747ZM15.7125 12.531L11.469 8.286C12.0454 8.20349 12.6332 8.25637 13.1857 8.44045C13.7382 8.62452 14.2402 8.93474 14.652 9.34652C15.0637 9.7583 15.3739 10.2603 15.558 10.8128C15.7421 11.3653 15.795 11.953 15.7125 12.5295V12.531Z" fill="black"/>
<path fill-rule="evenodd" clip-rule="evenodd" d="M20.469 21.531L2.46899 3.53099L3.53099 2.46899L21.531 20.469L20.469 21.531Z" fill="black"/>
</svg>
