<?xml version="1.0" encoding="utf-8"?>
<!-- Generator: Adobe Illustrator 24.0.2, SVG Export Plug-In . SVG Version: 6.00 Build 0)  -->
<svg version="1.1" id="Layer_1" xmlns="http://www.w3.org/2000/svg" xmlns:xlink="http://www.w3.org/1999/xlink" x="0px" y="0px"
	 viewBox="0 0 100 25" style="enable-background:new 0 0 100 25;" xml:space="preserve">
<style type="text/css">
	.st0{clip-path:url(#SVGID_2_);}
	.st1{fill:#009640;}
	.st2{fill:#E30613;}
	.st3{fill:#FFFFFF;}
</style>
<g>
	<g>
		<defs>
			<rect id="SVGID_1_" x="27.4" y="0.5" width="45.3" height="24"/>
		</defs>
		<clipPath id="SVGID_2_">
			<use xlink:href="#SVGID_1_"  style="overflow:visible;"/>
		</clipPath>
		<g class="st0">
			<path class="st1" d="M65.7,3.6h-3v6h3V3.6z"/>
			<path class="st2" d="M71.6,0.6h-3v9h3V0.6z"/>
			<path class="st3" d="M33.1,10.4c-0.5,0-0.9,0.1-1.3,0.3c-0.4,0.2-0.7,0.5-1,0.9c-0.3,0.4-0.5,0.8-0.6,1.4
				c-0.1,0.5-0.2,1.1-0.2,1.8c0,1.3,0.3,2.4,0.9,3.1c0.6,0.8,1.4,1.1,2.3,1.1c0.6,0,1.2-0.1,1.7-0.5c0.5-0.3,1-0.8,1.4-1.4l0.6,0.5
				c-0.2,0.4-0.4,0.7-0.7,1c-0.3,0.3-0.6,0.6-1,0.8c-0.4,0.2-0.7,0.4-1.1,0.5c-0.4,0.1-0.8,0.2-1.3,0.2c-0.7,0-1.4-0.1-2-0.4
				c-0.6-0.2-1.1-0.6-1.5-1.1c-0.4-0.5-0.7-1-1-1.7c-0.2-0.7-0.3-1.4-0.3-2.2c0-0.8,0.1-1.5,0.4-2.2s0.6-1.2,1-1.7
				c0.5-0.5,1-0.9,1.6-1.1c0.6-0.3,1.3-0.4,2.1-0.4c0.5,0,0.9,0.1,1.3,0.2s0.8,0.3,1.1,0.6c0.3,0.2,0.5,0.5,0.7,0.9
				c0.2,0.3,0.3,0.7,0.3,1.1c0,0.4-0.1,0.7-0.4,1c-0.2,0.2-0.5,0.4-0.9,0.4c-0.4,0-0.8-0.1-1-0.4v-2.4
				C34.3,10.6,33.6,10.4,33.1,10.4z"/>
			<path class="st3" d="M45.3,14.7c0-0.5,0-1-0.1-1.5c-0.1-0.5-0.3-1-0.5-1.4c-0.2-0.4-0.5-0.7-0.9-1c-0.4-0.2-0.9-0.4-1.4-0.4
				c-0.8,0-1.5,0.4-2,1.1c-0.5,0.7-0.8,1.7-0.8,3c0,1.4,0.2,2.4,0.7,3.2c0.5,0.8,1.2,1.1,2,1.1c0.4,0,0.8-0.1,1.2-0.3
				c0.4-0.2,0.7-0.5,1-0.9c0.3-0.4,0.5-0.8,0.6-1.4C45.2,15.9,45.3,15.4,45.3,14.7z M45.2,19.8V18c0,0-0.1,0.3-0.2,0.4
				c-0.2,0.4-0.5,0.7-0.8,1c-0.3,0.3-0.7,0.5-1.1,0.6c-0.4,0.1-0.8,0.2-1.3,0.2c-0.7,0-1.3-0.1-1.8-0.4c-0.5-0.3-1-0.6-1.4-1.1
				c-0.4-0.5-0.7-1-0.9-1.7c-0.2-0.7-0.3-1.4-0.3-2.2s0.1-1.4,0.4-2.1c0.2-0.7,0.5-1.2,1-1.7c0.4-0.5,0.9-0.9,1.4-1.1
				c0.6-0.3,1.2-0.4,1.9-0.4S43.5,9.7,44,10c0.7,0.4,1.2,1.3,1.2,1.3v-6c0-0.2,0-0.3-0.1-0.3c0,0-0.2-0.1-0.3-0.1l-1.5-0.2V4
				l3.6-0.4l0.1,0.2v15l1.7,0.2v0.7L45.6,20L45.2,19.8z"/>
			<path class="st3" d="M51.9,14.9c0,0.5,0,1,0.1,1.5c0.1,0.5,0.3,1,0.5,1.4c0.2,0.4,0.5,0.7,0.9,1c0.4,0.2,0.9,0.4,1.4,0.4
				c0.9,0,1.5-0.4,2-1.1s0.7-1.8,0.7-3.1c0-1.3-0.2-2.3-0.7-3c-0.5-0.8-1.1-1.1-2-1.1c-0.4,0-0.8,0.1-1.2,0.3
				c-0.4,0.2-0.7,0.5-1,0.9c-0.3,0.4-0.5,0.8-0.6,1.3C52,13.7,51.9,14.2,51.9,14.9z M51.9,9.7v1.9c0,0,0.1-0.2,0.2-0.4
				c0.2-0.4,0.5-0.7,0.9-1c0.3-0.3,0.7-0.5,1.1-0.6c0.4-0.2,0.8-0.2,1.3-0.2c0.7,0,1.3,0.1,1.8,0.4c0.5,0.3,1,0.6,1.4,1.1
				c0.4,0.5,0.7,1,0.9,1.7c0.2,0.7,0.3,1.4,0.3,2.2c0,0.7-0.1,1.4-0.4,2.1c-0.2,0.6-0.5,1.2-1,1.7c-0.4,0.5-0.9,0.8-1.4,1.1
				c-0.6,0.3-1.2,0.4-1.9,0.4s-1.3-0.2-1.9-0.5c-0.7-0.4-1.2-1.3-1.2-1.3V20v3.7l1.9,0.2v0.8h-5.3v-0.8l1.2-0.1c0.1,0,0.2,0,0.3-0.1
				c0,0,0.1-0.1,0.1-0.3V11.2c0-0.2,0-0.3-0.1-0.3c0,0-0.2-0.1-0.3-0.1l-1.3-0.1V9.9l3.2-0.4L51.9,9.7z"/>
		</g>
	</g>
</g>
</svg>
